<svg width="255" height="43" viewBox="0 0 255 43" fill="none" xmlns="http://www.w3.org/2000/svg">
<g clip-path="url(#clip0_146_2710)">
<path fill-rule="evenodd" clip-rule="evenodd" d="M22.3 15.9647C24.4418 17.1844 26.5835 18.4049 28.7252 19.6237V6.29414L39.6722 0.0508736L39.7715 0L39.8709 0.0606912L47.1096 4.18641V17.898L47.2839 17.9975L53.4808 21.5257V42.3676H58.3245V43H41.6172V42.3676H46.4609V18.5968L34.796 25.2493V43H0V42.3676H14.9332V19.4327L21.5645 15.651L21.6591 15.5975L21.7638 15.6564L22.3023 15.9638L22.3 15.9647ZM15.5838 42.3676H21.3042V16.5328L15.5838 19.7951V42.3676ZM29.3762 42.3676H32.1345V5.08343L29.3762 6.6565V42.3676ZM32.785 42.3676H34.1453V24.8869L35.6936 24.0038V3.0538L32.785 4.71214V42.3676ZM36.344 23.6329L39.4118 21.8836V0.933143L36.344 2.68251V23.6329Z" fill="white"/>
<path fill-rule="evenodd" clip-rule="evenodd" d="M23.6145 6.90305H21.6464V11.0363H23.6141L23.6145 6.90305ZM8.60117 42.3279H4.90957V6.90305H2.3252V6.1833L6.42465 0.0878906H7.31169L24.0662 6.17625V11.7565H22.8554V12.0529C23.0765 12.1173 23.2713 12.2408 23.4205 12.4039C23.6304 12.632 23.7425 12.9299 23.7339 13.2362C23.7252 13.5425 23.5964 13.8339 23.374 14.0503C23.26 14.162 23.1246 14.2507 22.9754 14.3112C22.8262 14.3718 22.6663 14.403 22.5047 14.403C22.3432 14.4031 22.1832 14.3721 22.0339 14.3117C21.8847 14.2513 21.7492 14.1628 21.6351 14.0512C21.5205 13.9399 21.4296 13.8077 21.3677 13.6621C21.3056 13.5164 21.2738 13.3603 21.2738 13.2026H21.726C21.7259 13.3023 21.746 13.4009 21.785 13.493C21.8241 13.5851 21.8814 13.6687 21.9536 13.7392C22.0258 13.8096 22.1116 13.8655 22.206 13.9036C22.3003 13.9417 22.4015 13.9613 22.5036 13.9612C22.6058 13.9614 22.707 13.9419 22.8015 13.9038C22.896 13.8658 22.9818 13.8099 23.0541 13.7395C23.1264 13.669 23.1837 13.5853 23.2227 13.4932C23.2618 13.4011 23.2818 13.3023 23.2817 13.2026C23.2822 13.0162 23.212 12.8361 23.0848 12.697C22.9576 12.5578 22.7822 12.4693 22.5922 12.4485L22.5389 12.4458L22.4078 12.4454V12.2231H22.405V11.7565H21.1943V6.90305H8.82677V42.3279H8.60117ZM8.37509 40.1293L5.36169 41.8347V41.8863H8.37465L8.37509 40.1293ZM5.36169 41.1146L8.37465 39.4092V38.5826L5.36169 36.8778V41.1146ZM8.37465 37.8625V33.626L5.36169 35.3311V36.1574L8.37465 37.8625ZM8.37465 32.9054V32.0794L5.36169 30.3744V34.6114L8.37465 32.9054ZM8.37465 31.3596V27.1227L5.36169 28.8282V29.6542L8.37465 31.3596ZM8.37465 26.4025V25.5765L5.36169 23.871V28.108L8.37465 26.4025ZM8.37465 24.8563V20.6194L5.36169 22.3248V23.1508L8.37465 24.8563ZM8.37465 19.8992V19.0731L5.36169 17.3677V21.6046L8.37465 19.8992ZM8.37465 18.3529V14.116L5.36169 15.8214V16.6475L8.37465 18.3529ZM8.37465 13.3958V12.5698L5.36169 10.8643V15.1013L8.37465 13.3958ZM8.37465 11.8496V7.61265L5.36169 9.3181V10.1441L8.37465 11.8496ZM5.36169 6.90305V8.59791L8.35611 6.90305H5.36169ZM2.8673 6.1833H6.42465V0.883058L2.8673 6.1833ZM7.31169 6.1833H22.708L7.31169 0.557581V6.1833Z" fill="white"/>
<path d="M68.4973 27.3481H71.7279L78.7787 17.7933V27.3481H82.1561V12.6481H78.9472L71.8964 22.2244V12.6481H68.4973V27.3481ZM245.292 16.0502L245.123 20.5862C245.018 22.7287 244.891 24.6818 243.329 24.6818C243.181 24.6818 243.013 24.6602 242.844 24.6396L242.674 27.3275C243.329 27.4962 243.877 27.5796 244.384 27.5796C247.195 27.5796 247.85 24.7652 248.019 20.7334L248.124 18.7381H251.706V27.3481H255V16.0502H245.292ZM231.232 16.0502L231.064 20.5862C230.958 22.7287 230.832 24.6818 229.269 24.6818C229.122 24.6818 228.952 24.6602 228.784 24.6396L228.614 27.3275C229.269 27.4962 229.818 27.5796 230.325 27.5796C233.136 27.5796 233.79 24.7652 233.96 20.7334L234.065 18.7381H237.647V27.3481H240.94V16.0502H231.232ZM221.441 15.8815C219.625 15.8815 217.789 16.3651 216.543 17.2469L217.725 19.5356C218.549 18.8852 219.794 18.4859 220.997 18.4859C222.77 18.4859 223.615 19.3051 223.615 20.7118H220.997C217.535 20.7118 216.121 22.0988 216.121 24.0932C216.121 26.0463 217.703 27.5168 220.364 27.5168C222.031 27.5168 223.214 26.9704 223.826 25.9423V27.3481H226.909V20.9011C226.909 17.4785 224.902 15.8824 221.441 15.8824V15.8815ZM221.187 25.3116C220.027 25.3116 219.329 24.7652 219.329 23.9461C219.329 23.1907 219.815 22.6237 221.356 22.6237H223.615V23.7783C223.234 24.8074 222.285 25.3116 221.187 25.3116ZM215.277 16.0502H204.32V18.7381H208.163V27.3481H211.435V18.7381H215.277V16.0502ZM203.869 21.7418C203.869 18.1082 201.294 15.8824 197.959 15.8824C194.496 15.8824 191.9 18.3191 191.9 21.6996C191.9 25.0595 194.453 27.5168 198.38 27.5168C200.428 27.5168 202.012 26.8861 203.067 25.6893L201.314 23.7999C200.533 24.5346 199.668 24.8917 198.464 24.8917C196.734 24.8917 195.531 24.0295 195.214 22.6237H203.806C203.827 22.35 203.869 21.993 203.869 21.7418ZM197.979 18.3604C199.456 18.3604 200.533 19.2844 200.766 20.7127H195.172C195.404 19.2629 196.48 18.3604 197.979 18.3604ZM189.419 27.3481L189.397 12.6481H186.569L181.119 21.783L175.58 12.6481H172.752V27.3481H175.961V18.7165L180.313 25.7942H181.837L186.19 18.5497L186.21 27.3481H189.419ZM162.004 14.8318C164.473 14.8318 165.74 13.7615 165.761 11.5769H163.566C163.566 12.5422 162.995 13.1308 161.982 13.1308C160.947 13.1308 160.44 12.5431 160.42 11.5769H158.266C158.288 13.7606 159.534 14.8318 162.004 14.8318ZM156.304 27.3481H159.343L164.852 20.6284V27.3481H168.125V16.0502H165.107L159.575 22.7699V16.0502H156.303L156.304 27.3481ZM148.084 27.5168C151.693 27.5168 154.311 25.1016 154.311 21.6996C154.311 18.2976 151.693 15.8824 148.084 15.8824C144.473 15.8824 141.835 18.2976 141.835 21.6996C141.835 25.1016 144.473 27.5168 148.084 27.5168ZM148.084 24.828C146.437 24.828 145.17 23.6527 145.17 21.6996C145.17 19.7465 146.437 18.5694 148.084 18.5694C149.73 18.5694 150.976 19.7465 150.976 21.6996C150.976 23.6527 149.73 24.828 148.084 24.828ZM134.804 15.8824C133.285 15.8824 132.06 16.3651 131.237 17.3519V16.0492H128.091V31.4231H131.385V26.1513C132.229 27.0754 133.39 27.5168 134.804 27.5168C137.993 27.5168 140.462 25.2488 140.462 21.6996C140.462 18.1504 137.993 15.8824 134.804 15.8824ZM134.234 24.828C132.588 24.828 131.342 23.6527 131.342 21.6996C131.342 19.7465 132.588 18.5694 134.234 18.5694C135.881 18.5694 137.127 19.7465 137.127 21.6996C137.127 23.6527 135.881 24.828 134.234 24.828ZM126.36 16.0502H115.403V18.7381H119.245V27.3481H122.518V18.7381H126.36V16.0502ZM108.782 27.6002C111.358 27.6002 113.49 26.6761 114.884 24.9761L112.688 22.9592C111.695 24.1148 110.45 24.7024 108.972 24.7024C106.206 24.7024 104.243 22.7699 104.243 19.9976C104.243 17.2263 106.206 15.2938 108.972 15.2938C110.45 15.2938 111.695 15.8824 112.688 17.0164L114.884 15.0005C113.49 13.3201 111.358 12.3951 108.803 12.3951C104.202 12.3951 100.782 15.5675 100.782 19.9986C100.782 24.4297 104.202 27.6002 108.782 27.6002ZM92.2689 15.8824C90.7491 15.8824 89.5243 16.3651 88.701 17.3519V16.0492H85.5552V31.4231H88.8488V26.1513C89.6932 27.0754 90.8546 27.5168 92.2689 27.5168C95.4561 27.5168 97.9264 25.2488 97.9264 21.6996C97.9264 18.1504 95.4571 15.8824 92.2689 15.8824ZM91.6989 24.828C90.0519 24.828 88.8064 23.6527 88.8064 21.6996C88.8064 19.7465 90.0519 18.5694 91.6989 18.5694C93.3456 18.5694 94.5911 19.7465 94.5911 21.6996C94.5911 23.6527 93.3456 24.828 91.6989 24.828Z" fill="white"/>
</g>
<defs>
<clipPath id="clip0_146_2710">
<rect width="255" height="43" fill="white"/>
</clipPath>
</defs>
</svg>
