<svg display="none" xmlns="http://www.w3.org/2000/svg">
	<symbol id="arrow" viewBox="0 0 12 8">
		<path d="M5.99998 5.72406L1.13798 0.862061L0.195312 1.80473L5.99998 7.60939L11.8046 1.80473L10.862 0.862061L5.99998 5.72406Z"/>
	</symbol>
	<symbol id="arrow-slider" viewBox="0 0 15 16">
		<path d="M0.333374 8.83336H10.8217L4.98837 14.6667L6.16671 15.845L14.0117 8.00003L6.16671 0.155029L4.98837 1.33336L10.8217 7.1667H0.333374V8.83336Z"/>
	</symbol>
	<symbol id="arrow-product" viewBox="0 0 25 24">
		<path d="M21.5355 12.7206L0.71875 12.7206V11.2206L21.5355 11.2206L11.5021 1.1872L12.5628 0.126542L24.4068 11.9706L12.5628 23.8146L11.5021 22.754L21.5355 12.7206Z"/>
	</symbol>
	<symbol id="download" viewBox="0 0 16 17">
		<path d="M2 13.1668H14V14.5001H2V13.1668ZM8.66667 9.28146L12.714 5.23346L13.6567 6.17612L8 11.8335L2.34333 6.17679L3.286 5.23346L7.33333 9.28012V1.83346H8.66667V9.28146Z"/>
	</symbol>
	<symbol id="arrow-more" viewBox="0 0 16 17">
		<path d="M10.7814 7.83346L7.20541 4.25746L8.14808 3.31479L13.3334 8.50012L8.14808 13.6855L7.20541 12.7428L10.7814 9.16679H2.66675V7.83346H10.7814Z"/>
	</symbol>
	<symbol id="phone" viewBox="0 0 20 20">
		<path d="M9.99996 15.8334C10.4602 15.8334 10.8333 15.4603 10.8333 15.0001C10.8333 14.5398 10.4602 14.1667 9.99996 14.1667C9.53972 14.1667 9.16663 14.5398 9.16663 15.0001C9.16663 15.4603 9.53972 15.8334 9.99996 15.8334Z"/>
    <path d="M13.3333 18.3334C14.25 18.3334 15 17.5834 15 16.6667V3.33341C15 2.41675 14.25 1.66675 13.3333 1.66675H6.66667C5.75 1.66675 5 2.41675 5 3.33341V16.6667C5 17.5834 5.75 18.3334 6.66667 18.3334H13.3333ZM6.66667 3.33341H8.32458V5.00008H11.6579V3.33341H13.3333V16.6667H6.66667V3.33341Z" />
	</symbol>
	<symbol id="mail" viewBox="0 0 20 20">
		<path d="M3.33329 16.6666H16.6666C17.5833 16.6666 18.3333 15.9166 18.3333 14.9999V4.99992C18.3333 4.08325 17.5833 3.33325 16.6666 3.33325H3.33329C2.41663 3.33325 1.66663 4.08325 1.66663 4.99992V14.9999C1.66663 15.9166 2.41663 16.6666 3.33329 16.6666ZM16.3216 4.99992L9.99996 11.3216L3.67829 4.99992H16.3216ZM3.33329 7.01158L9.99996 13.6783L16.6666 7.01158V14.9999H3.33329V7.01158Z"/>
	</symbol>
	<symbol id="place" viewBox="0 0 20 20">
		<path d="M9.99996 18.3334C9.99996 18.3334 15.8333 13.3334 15.8333 7.50008C15.8333 4.27841 13.2216 1.66675 9.99996 1.66675C6.77829 1.66675 4.16663 4.27841 4.16663 7.50008C4.16663 13.3334 9.99996 18.3334 9.99996 18.3334ZM9.99996 3.33341C12.2975 3.33341 14.1666 5.20258 14.1666 7.50008C14.1666 11.0413 11.5379 14.3613 9.99996 16.0005C8.46163 14.3605 5.83329 11.0409 5.83329 7.50008C5.83329 5.20258 7.70246 3.33341 9.99996 3.33341Z"/>
    <path d="M9.99996 8.33341C10.4602 8.33341 10.8333 7.96032 10.8333 7.50008C10.8333 7.03984 10.4602 6.66675 9.99996 6.66675C9.53972 6.66675 9.16663 7.03984 9.16663 7.50008C9.16663 7.96032 9.53972 8.33341 9.99996 8.33341Z"/>
	</symbol>
	<symbol id="whatsapp" viewBox="0 0 32 32">
		<path d="M20.479 17.3926C20.4426 17.3752 19.0818 16.705 18.84 16.618C18.7412 16.5826 18.6355 16.548 18.523 16.548C18.3392 16.548 18.1849 16.6395 18.0646 16.8194C17.9287 17.0215 17.5172 17.5025 17.39 17.6462C17.3734 17.6652 17.3507 17.6878 17.3372 17.6878C17.325 17.6878 17.1144 17.6011 17.0506 17.5734C15.5908 16.9393 14.4827 15.4144 14.3308 15.1572C14.3091 15.1203 14.3082 15.1035 14.308 15.1035C14.3134 15.0839 14.3624 15.0347 14.3878 15.0093C14.4619 14.936 14.5422 14.8393 14.6199 14.7458C14.6567 14.7015 14.6935 14.6571 14.7297 14.6153C14.8424 14.4841 14.8926 14.3823 14.9508 14.2644L14.9813 14.2031C15.1234 13.9209 15.002 13.6827 14.9628 13.6058C14.9306 13.5414 14.356 12.1546 14.2949 12.0089C14.148 11.6574 13.9539 11.4937 13.6841 11.4937C13.6591 11.4937 13.6841 11.4937 13.5792 11.4981C13.4514 11.5035 12.7553 11.5951 12.4475 11.7891C12.1212 11.9949 11.5691 12.6507 11.5691 13.8042C11.5691 14.8423 12.2278 15.8225 12.5107 16.1953C12.5177 16.2047 12.5306 16.2238 12.5494 16.2512C13.6326 17.8331 14.9829 19.0055 16.3518 19.5523C17.6697 20.0787 18.2938 20.1396 18.6486 20.1396C18.7977 20.1396 18.9171 20.1279 19.0223 20.1175L19.0891 20.1112C19.5444 20.0708 20.5449 19.5524 20.7724 18.92C20.9517 18.4218 20.999 17.8776 20.8797 17.6801C20.798 17.5458 20.6572 17.4782 20.479 17.3926Z"/>
  <path d="M16.1656 6.6665C11.1101 6.6665 6.99716 10.7486 6.99716 15.7661C6.99716 17.3889 7.43146 18.9775 8.25419 20.3678L6.67946 25.0129C6.65013 25.0995 6.67195 25.1953 6.73601 25.2605C6.78225 25.3077 6.84498 25.3332 6.90904 25.3332C6.93358 25.3332 6.95831 25.3295 6.98243 25.3218L11.8261 23.7826C13.1515 24.4908 14.6496 24.8646 16.1657 24.8646C21.2207 24.8647 25.3333 20.7831 25.3333 15.7661C25.3333 10.7486 21.2207 6.6665 16.1656 6.6665ZM16.1656 22.9692C14.739 22.9692 13.3573 22.5572 12.1695 21.7778C12.1296 21.7516 12.0832 21.7381 12.0366 21.7381C12.0119 21.7381 11.9872 21.7419 11.9631 21.7495L9.53673 22.5208L10.32 20.21C10.3453 20.1352 10.3327 20.0527 10.286 19.9889C9.38152 18.753 8.9034 17.2929 8.9034 15.7661C8.9034 11.7938 12.1612 8.56202 16.1656 8.56202C20.1695 8.56202 23.4269 11.7938 23.4269 15.7661C23.427 19.7379 20.1696 22.9692 16.1656 22.9692Z"/>
	</symbol>
	<symbol id="telegram" viewBox="0 0 32 32">
		<path d="M7.24248 15.8309C11.9068 13.7988 15.0171 12.459 16.5733 11.8118C21.0167 9.9636 21.94 9.64255 22.5418 9.63195C22.6741 9.6296 22.9701 9.6624 23.1618 9.81795C23.3237 9.9493 23.3682 10.1267 23.3895 10.2513C23.4108 10.3758 23.4373 10.6595 23.4163 10.8811C23.1755 13.4111 22.1336 19.5507 21.6035 22.3843C21.3792 23.5833 20.9376 23.9854 20.5101 24.0247C19.5809 24.1102 18.8754 23.4107 17.9754 22.8207C16.5672 21.8976 15.7717 21.323 14.4048 20.4222C12.8251 19.3812 13.8491 18.8091 14.7494 17.874C14.985 17.6293 19.0789 13.9057 19.1581 13.5679C19.168 13.5256 19.1772 13.3681 19.0837 13.285C18.9901 13.2018 18.852 13.2303 18.7524 13.2529C18.6111 13.2849 16.3615 14.7719 12.0035 17.7136C11.3649 18.1521 10.7866 18.3658 10.2683 18.3546C9.69708 18.3422 8.59813 18.0316 7.78123 17.766C6.77923 17.4403 5.98283 17.2681 6.05218 16.7149C6.08833 16.4268 6.48508 16.1321 7.24248 15.8309Z"/>
	</symbol>
	<symbol id="instagram" viewBox="0 0 32 32">
		<path d="M20.0766 7.11108H11.9234C9.26983 7.11108 7.11108 9.26983 7.11108 11.9234V20.0767C7.11108 22.7301 9.26983 24.8889 11.9234 24.8889H20.0767C22.7301 24.8889 24.8889 22.7301 24.8889 20.0767V11.9234C24.8889 9.26983 22.7301 7.11108 20.0766 7.11108V7.11108ZM23.8467 20.0767C23.8467 22.1554 22.1554 23.8467 20.0766 23.8467H11.9234C9.84451 23.8467 8.15329 22.1554 8.15329 20.0767V11.9234C8.15329 9.84451 9.84451 8.15329 11.9234 8.15329H20.0767C22.1554 8.15329 23.8467 9.84451 23.8467 11.9234V20.0767Z"/>
		<path d="M16 11.5557C13.5493 11.5557 11.5555 13.5494 11.5555 16.0001C11.5555 18.4508 13.5493 20.4446 16 20.4446C18.4507 20.4446 20.4444 18.4508 20.4444 16.0001C20.4444 13.5494 18.4507 11.5557 16 11.5557V11.5557ZM16 19.4917C14.0748 19.4917 12.5084 17.9254 12.5084 16.0001C12.5084 14.075 14.0748 12.5086 16 12.5086C17.9253 12.5086 19.4915 14.075 19.4915 16.0001C19.4915 17.9254 17.9253 19.4917 16 19.4917V19.4917Z"/>
		<path d="M21 9.33325C20.0809 9.33325 19.3334 10.0809 19.3334 10.9998C19.3334 11.9189 20.0809 12.6666 21 12.6666C21.919 12.6666 22.6667 11.9189 22.6667 10.9998C22.6667 10.0808 21.919 9.33325 21 9.33325ZM21 11.4572C20.7478 11.4572 20.5426 11.252 20.5426 10.9998C20.5426 10.7476 20.7478 10.5425 21 10.5425C21.2522 10.5425 21.4574 10.7476 21.4574 10.9998C21.4574 11.252 21.2522 11.4572 21 11.4572Z"/>
	</symbol>
	<symbol id="search" viewBox="0 0 24 24">
		<path fill-rule="evenodd" clip-rule="evenodd" d="M10 18C5.58172 18 2 14.4183 2 10C2 5.58172 5.58172 2 10 2C14.4183 2 18 5.58172 18 10C18 11.8487 17.3729 13.551 16.3199 14.9056L21.7071 20.2929L20.2929 21.7071L14.9056 16.3199C13.551 17.3729 11.8487 18 10 18ZM16 10C16 13.3137 13.3137 16 10 16C6.68629 16 4 13.3137 4 10C4 6.68629 6.68629 4 10 4C13.3137 4 16 6.68629 16 10Z"/>
	</symbol>


</svg>

